REM DIRINDEX 1\3,1\2\4,1\2\5,1\2\6
REM DIRNAME folder01,folder02,folder03,folder04,folder05,folder06
TITLE ""
FILE "147.mp3" MP3
  TRACK 01 AUDIO
    TITLE "4:cjc137_6445"
    INDEX 01 00:00:00
  TRACK 02 AUDIO
    TITLE "0:"
    INDEX 01 00:01:32
  TRACK 03 AUDIO
    TITLE "6:cjc137_6446"
    INDEX 01 00:01:40
  TRACK 04 AUDIO
    TITLE "0:"
    INDEX 01 00:02:67
  TRACK 05 AUDIO
    TITLE "5:cjc137_6447"
    INDEX 01 00:03:02
  TRACK 06 AUDIO
    TITLE "0:"
    INDEX 01 00:04:31
  TRACK 07 AUDIO
    TITLE "4:cjc137_6448"
    INDEX 01 00:05:40
  TRACK 08 AUDIO
    TITLE "0:"
    INDEX 01 00:06:61
  TRACK 09 AUDIO
    TITLE "6:cjc137_6449"
    INDEX 01 00:06:67
  TRACK 10 AUDIO
    TITLE "0:"
    INDEX 01 00:07:64
  TRACK 11 AUDIO
    TITLE "5:cjc137_6450"
    INDEX 01 00:07:70
  TRACK 12 AUDIO
    TITLE "0:"
    INDEX 01 00:09:16
  TRACK 13 AUDIO
    TITLE "4:cjc137_6451"
    INDEX 01 00:10:25
  TRACK 14 AUDIO
    TITLE "0:"
    INDEX 01 00:11:52
  TRACK 15 AUDIO
    TITLE "6:cjc137_6452"
    INDEX 01 00:11:66
  TRACK 16 AUDIO
    TITLE "0:"
    INDEX 01 00:13:47
  TRACK 17 AUDIO
    TITLE "5:cjc137_6453"
    INDEX 01 00:13:51
  TRACK 18 AUDIO
    TITLE "0:"
    INDEX 01 00:15:07
  TRACK 19 AUDIO
    TITLE "4:cjc137_6454"
    INDEX 01 00:16:16
  TRACK 20 AUDIO
    TITLE "0:"
    INDEX 01 00:17:25
  TRACK 21 AUDIO
    TITLE "6:cjc137_6455"
    INDEX 01 00:17:35
  TRACK 22 AUDIO
    TITLE "0:"
    INDEX 01 00:18:41
  TRACK 23 AUDIO
    TITLE "5:cjc137_6456"
    INDEX 01 00:18:44
  TRACK 24 AUDIO
    TITLE "0:"
    INDEX 01 00:19:52
  TRACK 25 AUDIO
    TITLE "4:cjc137_6457"
    INDEX 01 00:20:65
  TRACK 26 AUDIO
    TITLE "0:"
    INDEX 01 00:22:19
  TRACK 27 AUDIO
    TITLE "6:cjc137_6458"
    INDEX 01 00:22:27
  TRACK 28 AUDIO
    TITLE "0:"
    INDEX 01 00:23:32
  TRACK 29 AUDIO
    TITLE "5:cjc137_6459"
    INDEX 01 00:23:36
  TRACK 30 AUDIO
    TITLE "0:"
    INDEX 01 00:24:67
  TRACK 31 AUDIO
    TITLE "4:cjc137_6460"
    INDEX 01 00:25:74
  TRACK 32 AUDIO
    TITLE "0:"
    INDEX 01 00:27:20
  TRACK 33 AUDIO
    TITLE "6:cjc137_6461"
    INDEX 01 00:27:24
  TRACK 34 AUDIO
    TITLE "0:"
    INDEX 01 00:28:31
  TRACK 35 AUDIO
    TITLE "5:cjc137_6462"
    INDEX 01 00:28:37
  TRACK 36 AUDIO
    TITLE "0:"
    INDEX 01 00:29:58
  TRACK 37 AUDIO
    TITLE "4:cjc137_6463"
    INDEX 01 00:30:65
  TRACK 38 AUDIO
    TITLE "0:"
    INDEX 01 00:32:13
  TRACK 39 AUDIO
    TITLE "6:cjc137_6464"
    INDEX 01 00:32:27
  TRACK 40 AUDIO
    TITLE "0:"
    INDEX 01 00:33:44
  TRACK 41 AUDIO
    TITLE "5:cjc137_6465"
    INDEX 01 00:33:50
  TRACK 42 AUDIO
    TITLE "0:"
    INDEX 01 00:34:73
  TRACK 43 AUDIO
    TITLE "4:cjc137_6466"
    INDEX 01 00:36:17
  TRACK 44 AUDIO
    TITLE "0:"
    INDEX 01 00:37:20
  TRACK 45 AUDIO
    TITLE "6:cjc137_6467"
    INDEX 01 00:37:32
  TRACK 46 AUDIO
    TITLE "0:"
    INDEX 01 00:38:37
  TRACK 47 AUDIO
    TITLE "5:cjc137_6468"
    INDEX 01 00:38:45
  TRACK 48 AUDIO
    TITLE "0:"
    INDEX 01 00:39:51
  TRACK 49 AUDIO
    TITLE "4:cjc137_6469"
    INDEX 01 00:40:64
  TRACK 50 AUDIO
    TITLE "0:"
    INDEX 01 00:41:73
  TRACK 51 AUDIO
    TITLE "6:cjc137_6470"
    INDEX 01 00:42:04
  TRACK 52 AUDIO
    TITLE "0:"
    INDEX 01 00:43:07
  TRACK 53 AUDIO
    TITLE "5:cjc137_6471"
    INDEX 01 00:43:15
  TRACK 54 AUDIO
    TITLE "0:"
    INDEX 01 00:44:22
  TRACK 55 AUDIO
    TITLE "4:cjc137_6472"
    INDEX 01 00:45:32
  TRACK 56 AUDIO
    TITLE "0:"
    INDEX 01 00:46:43
  TRACK 57 AUDIO
    TITLE "6:cjc137_6473"
    INDEX 01 00:46:53
  TRACK 58 AUDIO
    TITLE "0:"
    INDEX 01 00:48:04
  TRACK 59 AUDIO
    TITLE "5:cjc137_6474"
    INDEX 01 00:48:10
  TRACK 60 AUDIO
    TITLE "0:"
    INDEX 01 00:49:21
  TRACK 61 AUDIO
    TITLE "4:cjc137_6475"
    INDEX 01 00:50:33
  TRACK 62 AUDIO
    TITLE "0:"
    INDEX 01 00:51:32
  TRACK 63 AUDIO
    TITLE "6:cjc137_6476"
    INDEX 01 00:51:38
  TRACK 64 AUDIO
    TITLE "0:"
    INDEX 01 00:52:55
  TRACK 65 AUDIO
    TITLE "5:cjc137_6477"
    INDEX 01 00:52:59
  TRACK 66 AUDIO
    TITLE "0:"
    INDEX 01 00:53:58
  TRACK 67 AUDIO
    TITLE "4:cjc137_6478"
    INDEX 01 00:54:66
  TRACK 68 AUDIO
    TITLE "0:"
    INDEX 01 00:55:67
  TRACK 69 AUDIO
    TITLE "6:cjc137_6479"
    INDEX 01 00:55:73
  TRACK 70 AUDIO
    TITLE "0:"
    INDEX 01 00:57:01
  TRACK 71 AUDIO
    TITLE "5:cjc137_6480"
    INDEX 01 00:57:05
  TRACK 72 AUDIO
    TITLE "0:"
    INDEX 01 00:58:11
  TRACK 73 AUDIO
    TITLE "4:cjc137_6481"
    INDEX 01 00:59:18
  TRACK 74 AUDIO
    TITLE "0:"
    INDEX 01 01:00:37
  TRACK 75 AUDIO
    TITLE "6:cjc137_6482"
    INDEX 01 01:00:45
  TRACK 76 AUDIO
    TITLE "0:"
    INDEX 01 01:01:68
  TRACK 77 AUDIO
    TITLE "5:cjc137_6483"
    INDEX 01 01:01:72
  TRACK 78 AUDIO
    TITLE "0:"
    INDEX 01 01:03:16
  TRACK 79 AUDIO
    TITLE "4:cjc137_6484"
    INDEX 01 01:04:27
  TRACK 80 AUDIO
    TITLE "0:"
    INDEX 01 01:05:52
  TRACK 81 AUDIO
    TITLE "6:cjc137_6485"
    INDEX 01 01:05:58
  TRACK 82 AUDIO
    TITLE "0:"
    INDEX 01 01:07:10
  TRACK 83 AUDIO
    TITLE "5:cjc137_6486"
    INDEX 01 01:07:15
  TRACK 84 AUDIO
    TITLE "0:"
    INDEX 01 01:08:40
  TRACK 85 AUDIO
    TITLE "4:cjc137_6487"
    INDEX 01 01:09:48
  TRACK 86 AUDIO
    TITLE "0:"
    INDEX 01 01:10:73
  TRACK 87 AUDIO
    TITLE "6:cjc137_6488"
    INDEX 01 01:11:05
  TRACK 88 AUDIO
    TITLE "0:"
    INDEX 01 01:12:34
  TRACK 89 AUDIO
    TITLE "5:cjc137_6489"
    INDEX 01 01:12:40
  TRACK 90 AUDIO
    TITLE "0:"
    INDEX 01 01:13:65
  TRACK 91 AUDIO
    TITLE "4:cjc137_6490"
    INDEX 01 01:14:72
  TRACK 92 AUDIO
    TITLE "0:"
    INDEX 01 01:16:40
  TRACK 93 AUDIO
    TITLE "6:cjc137_6491"
    INDEX 01 01:16:44
  TRACK 94 AUDIO
    TITLE "0:"
    INDEX 01 01:18:19
  TRACK 95 AUDIO
    TITLE "5:cjc137_6492"
    INDEX 01 01:18:25
  TRACK 96 AUDIO
    TITLE "0:"
    INDEX 01 01:19:64
  TRACK 97 AUDIO
    TITLE "4:cjc137_6493"
    INDEX 01 01:20:73
  TRACK 98 AUDIO
    TITLE "0:"
    INDEX 01 01:22:05
  TRACK 99 AUDIO
    TITLE "6:cjc137_6494"
    INDEX 01 01:22:11
  TRACK 100 AUDIO
    TITLE "0:"
    INDEX 01 01:23:40
  TRACK 101 AUDIO
    TITLE "5:cjc137_6495"
    INDEX 01 01:23:48
  TRACK 102 AUDIO
    TITLE "0:"
    INDEX 01 01:24:55
  TRACK 103 AUDIO
    TITLE "4:cjc137_6496"
    INDEX 01 01:25:62
  TRACK 104 AUDIO
    TITLE "0:"
    INDEX 01 01:27:03
  TRACK 105 AUDIO
    TITLE "6:cjc137_6497"
    INDEX 01 01:27:10
  TRACK 106 AUDIO
    TITLE "0:"
    INDEX 01 01:28:35
  TRACK 107 AUDIO
    TITLE "5:cjc137_6498"
    INDEX 01 01:28:39
  TRACK 108 AUDIO
    TITLE "0:"
    INDEX 01 01:29:52
  TRACK 109 AUDIO
    TITLE "4:cjc137_6499"
    INDEX 01 01:30:62
  TRACK 110 AUDIO
    TITLE "0:"
    INDEX 01 01:32:04
  TRACK 111 AUDIO
    TITLE "6:cjc137_6500"
    INDEX 01 01:32:10
  TRACK 112 AUDIO
    TITLE "0:"
    INDEX 01 01:33:19
  TRACK 113 AUDIO
    TITLE "5:cjc137_6501"
    INDEX 01 01:33:27
  TRACK 114 AUDIO
    TITLE "0:"
    INDEX 01 01:34:44
  TRACK 115 AUDIO
    TITLE "4:cjc137_6502"
    INDEX 01 01:35:51
  TRACK 116 AUDIO
    TITLE "0:"
    INDEX 01 01:36:70
  TRACK 117 AUDIO
    TITLE "6:cjc137_6503"
    INDEX 01 01:37:01
  TRACK 118 AUDIO
    TITLE "0:"
    INDEX 01 01:38:28
  TRACK 119 AUDIO
    TITLE "5:cjc137_6504"
    INDEX 01 01:38:36
  TRACK 120 AUDIO
    TITLE "0:"
    INDEX 01 01:39:55
